<mxfile host="Electron" modified="2023-11-23T11:07:17.984Z" agent="Mozilla/5.0 (Windows NT 10.0; Win64; x64) AppleWebKit/537.36 (KHTML, like Gecko) draw.io/22.1.2 Chrome/114.0.5735.289 Electron/25.9.4 Safari/537.36" etag="jmgzgorXDBimy26E_XmL" version="22.1.2" type="device">
  <diagram name="ページ1" id="mVm98HoABzWzxBuXfpn-">
    <mxGraphModel dx="1805" dy="566" grid="1" gridSize="10" guides="1" tooltips="1" connect="1" arrows="1" fold="1" page="1" pageScale="1" pageWidth="827" pageHeight="1169" math="1" shadow="0">
      <root>
        <mxCell id="0" />
        <mxCell id="1" parent="0" />
        <mxCell id="CXuXiEM2NnwDOHn-P2QW-145" value="&lt;font style=&quot;font-size: 20px;&quot;&gt;`I_{Lbias}`&lt;/font&gt;" style="text;html=1;align=center;verticalAlign=middle;resizable=0;points=[];autosize=1;strokeColor=none;fillColor=none;fontSize=11;fontFamily=Helvetica;fontColor=default;" parent="1" vertex="1">
          <mxGeometry x="59" y="576" width="110" height="40" as="geometry" />
        </mxCell>
        <mxCell id="CXuXiEM2NnwDOHn-P2QW-154" value="&lt;font style=&quot;font-size: 18px;&quot;&gt;`I_{Lbias}&quot;/&quot;2-\Deltai_{L}`&lt;/font&gt;" style="text;html=1;align=center;verticalAlign=middle;resizable=0;points=[];autosize=1;strokeColor=none;fillColor=none;fontSize=18;fontFamily=Helvetica;fontColor=default;" parent="1" vertex="1">
          <mxGeometry x="130" y="600" width="220" height="40" as="geometry" />
        </mxCell>
        <mxCell id="CXuXiEM2NnwDOHn-P2QW-20" style="edgeStyle=orthogonalEdgeStyle;shape=connector;rounded=0;orthogonalLoop=1;jettySize=auto;html=1;exitX=0;exitY=0.5;exitDx=0;exitDy=0;exitPerimeter=0;entryX=0.498;entryY=0.641;entryDx=0;entryDy=0;entryPerimeter=0;labelBackgroundColor=default;strokeColor=default;fontFamily=Helvetica;fontSize=11;fontColor=default;endArrow=none;endFill=0;" parent="1" source="CXuXiEM2NnwDOHn-P2QW-1" target="CXuXiEM2NnwDOHn-P2QW-17" edge="1">
          <mxGeometry relative="1" as="geometry" />
        </mxCell>
        <mxCell id="CXuXiEM2NnwDOHn-P2QW-111" style="edgeStyle=orthogonalEdgeStyle;shape=connector;rounded=0;orthogonalLoop=1;jettySize=auto;html=1;exitX=1;exitY=0.5;exitDx=0;exitDy=0;exitPerimeter=0;entryX=0.47;entryY=0.04;entryDx=0;entryDy=0;entryPerimeter=0;labelBackgroundColor=default;strokeColor=default;fontFamily=Helvetica;fontSize=11;fontColor=default;endArrow=none;endFill=0;" parent="1" source="CXuXiEM2NnwDOHn-P2QW-1" target="CXuXiEM2NnwDOHn-P2QW-30" edge="1">
          <mxGeometry relative="1" as="geometry" />
        </mxCell>
        <mxCell id="CXuXiEM2NnwDOHn-P2QW-1" value="" style="pointerEvents=1;verticalLabelPosition=bottom;shadow=0;dashed=0;align=center;html=1;verticalAlign=top;shape=mxgraph.electrical.signal_sources.source;aspect=fixed;points=[[0.5,0,0],[1,0.5,0],[0.5,1,0],[0,0.5,0]];elSignalType=dc1;direction=south;" parent="1" vertex="1">
          <mxGeometry x="290" y="190" width="60" height="60" as="geometry" />
        </mxCell>
        <mxCell id="CXuXiEM2NnwDOHn-P2QW-12" style="edgeStyle=orthogonalEdgeStyle;shape=connector;rounded=0;orthogonalLoop=1;jettySize=auto;html=1;exitX=1;exitY=1;exitDx=0;exitDy=0;exitPerimeter=0;entryX=0.5;entryY=0.357;entryDx=0;entryDy=0;entryPerimeter=0;labelBackgroundColor=default;strokeColor=default;fontFamily=Helvetica;fontSize=11;fontColor=default;endArrow=none;endFill=0;" parent="1" source="CXuXiEM2NnwDOHn-P2QW-2" target="CXuXiEM2NnwDOHn-P2QW-7" edge="1">
          <mxGeometry relative="1" as="geometry">
            <Array as="points">
              <mxPoint x="120" y="510" />
            </Array>
          </mxGeometry>
        </mxCell>
        <mxCell id="CXuXiEM2NnwDOHn-P2QW-36" style="edgeStyle=orthogonalEdgeStyle;shape=connector;rounded=0;orthogonalLoop=1;jettySize=auto;html=1;exitX=1;exitY=0;exitDx=0;exitDy=0;exitPerimeter=0;entryX=0.367;entryY=0.483;entryDx=0;entryDy=0;entryPerimeter=0;labelBackgroundColor=default;strokeColor=default;fontFamily=Helvetica;fontSize=11;fontColor=default;endArrow=none;endFill=0;" parent="1" source="CXuXiEM2NnwDOHn-P2QW-2" target="CXuXiEM2NnwDOHn-P2QW-30" edge="1">
          <mxGeometry relative="1" as="geometry">
            <Array as="points">
              <mxPoint x="120" y="360" />
            </Array>
          </mxGeometry>
        </mxCell>
        <mxCell id="CXuXiEM2NnwDOHn-P2QW-96" style="edgeStyle=orthogonalEdgeStyle;shape=connector;rounded=0;orthogonalLoop=1;jettySize=auto;html=1;exitX=0;exitY=0.5;exitDx=0;exitDy=0;exitPerimeter=0;entryX=1;entryY=0.5;entryDx=0;entryDy=0;labelBackgroundColor=default;strokeColor=default;fontFamily=Helvetica;fontSize=11;fontColor=default;endArrow=none;endFill=0;" parent="1" source="CXuXiEM2NnwDOHn-P2QW-2" target="CXuXiEM2NnwDOHn-P2QW-95" edge="1">
          <mxGeometry relative="1" as="geometry" />
        </mxCell>
        <mxCell id="CXuXiEM2NnwDOHn-P2QW-2" value="" style="verticalLabelPosition=bottom;shadow=0;dashed=0;align=center;html=1;verticalAlign=top;shape=mxgraph.electrical.transistors.nmos;pointerEvents=1;" parent="1" vertex="1">
          <mxGeometry x="60" y="410" width="60" height="100" as="geometry" />
        </mxCell>
        <mxCell id="CXuXiEM2NnwDOHn-P2QW-67" style="edgeStyle=orthogonalEdgeStyle;shape=connector;rounded=0;orthogonalLoop=1;jettySize=auto;html=1;exitX=0;exitY=0.5;exitDx=0;exitDy=0;exitPerimeter=0;labelBackgroundColor=default;strokeColor=default;fontFamily=Helvetica;fontSize=11;fontColor=default;endArrow=none;endFill=0;" parent="1" source="CXuXiEM2NnwDOHn-P2QW-3" target="CXuXiEM2NnwDOHn-P2QW-65" edge="1">
          <mxGeometry relative="1" as="geometry" />
        </mxCell>
        <mxCell id="CXuXiEM2NnwDOHn-P2QW-3" value="" style="pointerEvents=1;verticalLabelPosition=bottom;shadow=0;dashed=0;align=center;html=1;verticalAlign=top;shape=mxgraph.electrical.resistors.resistor_1;direction=south;" parent="1" vertex="1">
          <mxGeometry x="550" y="160" width="20" height="100" as="geometry" />
        </mxCell>
        <mxCell id="CXuXiEM2NnwDOHn-P2QW-10" style="edgeStyle=orthogonalEdgeStyle;shape=connector;rounded=0;orthogonalLoop=1;jettySize=auto;html=1;exitX=1;exitY=1;exitDx=0;exitDy=0;exitPerimeter=0;entryX=0.617;entryY=0.583;entryDx=0;entryDy=0;entryPerimeter=0;labelBackgroundColor=default;strokeColor=default;fontFamily=Helvetica;fontSize=11;fontColor=default;endArrow=none;endFill=0;" parent="1" source="CXuXiEM2NnwDOHn-P2QW-4" target="CXuXiEM2NnwDOHn-P2QW-7" edge="1">
          <mxGeometry relative="1" as="geometry">
            <Array as="points">
              <mxPoint x="200" y="510" />
            </Array>
          </mxGeometry>
        </mxCell>
        <mxCell id="CXuXiEM2NnwDOHn-P2QW-35" style="edgeStyle=orthogonalEdgeStyle;shape=connector;rounded=0;orthogonalLoop=1;jettySize=auto;html=1;exitX=1;exitY=0;exitDx=0;exitDy=0;exitPerimeter=0;labelBackgroundColor=default;strokeColor=default;fontFamily=Helvetica;fontSize=11;fontColor=default;endArrow=none;endFill=0;" parent="1" source="CXuXiEM2NnwDOHn-P2QW-4" target="CXuXiEM2NnwDOHn-P2QW-29" edge="1">
          <mxGeometry relative="1" as="geometry">
            <Array as="points">
              <mxPoint x="200" y="400" />
            </Array>
          </mxGeometry>
        </mxCell>
        <mxCell id="CXuXiEM2NnwDOHn-P2QW-98" style="edgeStyle=orthogonalEdgeStyle;shape=connector;rounded=0;orthogonalLoop=1;jettySize=auto;html=1;exitX=0;exitY=0.5;exitDx=0;exitDy=0;exitPerimeter=0;entryX=0;entryY=0.5;entryDx=0;entryDy=0;labelBackgroundColor=default;strokeColor=default;fontFamily=Helvetica;fontSize=11;fontColor=default;endArrow=none;endFill=0;" parent="1" source="CXuXiEM2NnwDOHn-P2QW-4" target="CXuXiEM2NnwDOHn-P2QW-97" edge="1">
          <mxGeometry relative="1" as="geometry" />
        </mxCell>
        <mxCell id="CXuXiEM2NnwDOHn-P2QW-4" value="" style="verticalLabelPosition=bottom;shadow=0;dashed=0;align=center;html=1;verticalAlign=top;shape=mxgraph.electrical.transistors.nmos;pointerEvents=1;flipH=1;" parent="1" vertex="1">
          <mxGeometry x="200" y="410" width="60" height="100" as="geometry" />
        </mxCell>
        <mxCell id="CXuXiEM2NnwDOHn-P2QW-9" style="edgeStyle=orthogonalEdgeStyle;shape=connector;rounded=0;orthogonalLoop=1;jettySize=auto;html=1;exitX=1;exitY=0;exitDx=0;exitDy=0;exitPerimeter=0;labelBackgroundColor=default;strokeColor=default;fontFamily=Helvetica;fontSize=11;fontColor=default;endArrow=none;endFill=0;" parent="1" target="CXuXiEM2NnwDOHn-P2QW-7" edge="1">
          <mxGeometry relative="1" as="geometry">
            <mxPoint x="160" y="512.8571428571428" as="sourcePoint" />
          </mxGeometry>
        </mxCell>
        <mxCell id="CXuXiEM2NnwDOHn-P2QW-93" style="edgeStyle=orthogonalEdgeStyle;shape=connector;rounded=0;orthogonalLoop=1;jettySize=auto;html=1;exitX=1;exitY=0.5;exitDx=0;exitDy=0;exitPerimeter=0;entryX=0.517;entryY=0.398;entryDx=0;entryDy=0;entryPerimeter=0;labelBackgroundColor=default;strokeColor=default;fontFamily=Helvetica;fontSize=11;fontColor=default;endArrow=none;endFill=0;" parent="1" source="xyEougToBjBdDJCCA7tv-1" target="CXuXiEM2NnwDOHn-P2QW-81" edge="1">
          <mxGeometry relative="1" as="geometry">
            <mxPoint x="160" y="607.1428571428571" as="sourcePoint" />
          </mxGeometry>
        </mxCell>
        <mxCell id="CXuXiEM2NnwDOHn-P2QW-7" value="" style="shape=waypoint;sketch=0;fillStyle=solid;size=6;pointerEvents=1;points=[];fillColor=none;resizable=0;rotatable=0;perimeter=centerPerimeter;snapToPoint=1;fontFamily=Helvetica;fontSize=11;fontColor=default;" parent="1" vertex="1">
          <mxGeometry x="150" y="500" width="20" height="20" as="geometry" />
        </mxCell>
        <mxCell id="CXuXiEM2NnwDOHn-P2QW-25" style="edgeStyle=orthogonalEdgeStyle;shape=connector;rounded=0;orthogonalLoop=1;jettySize=auto;html=1;exitX=1;exitY=0;exitDx=0;exitDy=0;exitPerimeter=0;entryX=0.572;entryY=0.633;entryDx=0;entryDy=0;entryPerimeter=0;labelBackgroundColor=default;strokeColor=default;fontFamily=Helvetica;fontSize=11;fontColor=default;endArrow=none;endFill=0;" parent="1" source="CXuXiEM2NnwDOHn-P2QW-13" target="CXuXiEM2NnwDOHn-P2QW-22" edge="1">
          <mxGeometry relative="1" as="geometry" />
        </mxCell>
        <mxCell id="CXuXiEM2NnwDOHn-P2QW-48" style="edgeStyle=orthogonalEdgeStyle;shape=connector;rounded=0;orthogonalLoop=1;jettySize=auto;html=1;exitX=0;exitY=0.5;exitDx=0;exitDy=0;exitPerimeter=0;entryX=0.517;entryY=0.638;entryDx=0;entryDy=0;entryPerimeter=0;labelBackgroundColor=default;strokeColor=default;fontFamily=Helvetica;fontSize=11;fontColor=default;endArrow=none;endFill=0;" parent="1" source="CXuXiEM2NnwDOHn-P2QW-13" target="CXuXiEM2NnwDOHn-P2QW-47" edge="1">
          <mxGeometry relative="1" as="geometry">
            <Array as="points">
              <mxPoint x="380" y="530" />
              <mxPoint x="380" y="530" />
            </Array>
          </mxGeometry>
        </mxCell>
        <mxCell id="CXuXiEM2NnwDOHn-P2QW-91" style="edgeStyle=orthogonalEdgeStyle;shape=connector;rounded=0;orthogonalLoop=1;jettySize=auto;html=1;exitX=1;exitY=1;exitDx=0;exitDy=0;exitPerimeter=0;labelBackgroundColor=default;strokeColor=default;fontFamily=Helvetica;fontSize=11;fontColor=default;endArrow=none;endFill=0;" parent="1" source="CXuXiEM2NnwDOHn-P2QW-13" target="CXuXiEM2NnwDOHn-P2QW-82" edge="1">
          <mxGeometry relative="1" as="geometry" />
        </mxCell>
        <mxCell id="CXuXiEM2NnwDOHn-P2QW-13" value="" style="verticalLabelPosition=bottom;shadow=0;dashed=0;align=center;html=1;verticalAlign=top;shape=mxgraph.electrical.transistors.nmos;pointerEvents=1;flipH=1;" parent="1" vertex="1">
          <mxGeometry x="320" y="510" width="60" height="100" as="geometry" />
        </mxCell>
        <mxCell id="CXuXiEM2NnwDOHn-P2QW-28" style="edgeStyle=orthogonalEdgeStyle;shape=connector;rounded=0;orthogonalLoop=1;jettySize=auto;html=1;exitX=1;exitY=0;exitDx=0;exitDy=0;exitPerimeter=0;labelBackgroundColor=default;strokeColor=default;fontFamily=Helvetica;fontSize=11;fontColor=default;endArrow=none;endFill=0;" parent="1" source="CXuXiEM2NnwDOHn-P2QW-14" target="CXuXiEM2NnwDOHn-P2QW-23" edge="1">
          <mxGeometry relative="1" as="geometry" />
        </mxCell>
        <mxCell id="CXuXiEM2NnwDOHn-P2QW-89" style="edgeStyle=orthogonalEdgeStyle;shape=connector;rounded=0;orthogonalLoop=1;jettySize=auto;html=1;exitX=1;exitY=1;exitDx=0;exitDy=0;exitPerimeter=0;entryX=0.471;entryY=0.352;entryDx=0;entryDy=0;entryPerimeter=0;labelBackgroundColor=default;strokeColor=default;fontFamily=Helvetica;fontSize=11;fontColor=default;endArrow=none;endFill=0;" parent="1" source="CXuXiEM2NnwDOHn-P2QW-14" target="CXuXiEM2NnwDOHn-P2QW-83" edge="1">
          <mxGeometry relative="1" as="geometry" />
        </mxCell>
        <mxCell id="CXuXiEM2NnwDOHn-P2QW-115" style="edgeStyle=orthogonalEdgeStyle;shape=connector;rounded=0;orthogonalLoop=1;jettySize=auto;html=1;exitX=0;exitY=0.5;exitDx=0;exitDy=0;exitPerimeter=0;entryX=0.59;entryY=0.98;entryDx=0;entryDy=0;entryPerimeter=0;labelBackgroundColor=default;strokeColor=default;fontFamily=Helvetica;fontSize=11;fontColor=default;endArrow=none;endFill=0;" parent="1" source="CXuXiEM2NnwDOHn-P2QW-14" target="CXuXiEM2NnwDOHn-P2QW-114" edge="1">
          <mxGeometry relative="1" as="geometry">
            <Array as="points">
              <mxPoint x="480" y="530" />
              <mxPoint x="480" y="530" />
            </Array>
          </mxGeometry>
        </mxCell>
        <mxCell id="CXuXiEM2NnwDOHn-P2QW-14" value="" style="verticalLabelPosition=bottom;shadow=0;dashed=0;align=center;html=1;verticalAlign=top;shape=mxgraph.electrical.transistors.nmos;pointerEvents=1;flipH=1;" parent="1" vertex="1">
          <mxGeometry x="420" y="510" width="60" height="100" as="geometry" />
        </mxCell>
        <mxCell id="CXuXiEM2NnwDOHn-P2QW-21" style="edgeStyle=orthogonalEdgeStyle;shape=connector;rounded=0;orthogonalLoop=1;jettySize=auto;html=1;exitX=0;exitY=0.5;exitDx=0;exitDy=0;exitPerimeter=0;entryX=0.489;entryY=0.633;entryDx=0;entryDy=0;entryPerimeter=0;labelBackgroundColor=default;strokeColor=default;fontFamily=Helvetica;fontSize=11;fontColor=default;endArrow=none;endFill=0;" parent="1" source="CXuXiEM2NnwDOHn-P2QW-15" target="CXuXiEM2NnwDOHn-P2QW-18" edge="1">
          <mxGeometry relative="1" as="geometry" />
        </mxCell>
        <mxCell id="CXuXiEM2NnwDOHn-P2QW-112" style="edgeStyle=orthogonalEdgeStyle;shape=connector;rounded=0;orthogonalLoop=1;jettySize=auto;html=1;exitX=1;exitY=0.5;exitDx=0;exitDy=0;exitPerimeter=0;entryX=0.39;entryY=0.02;entryDx=0;entryDy=0;entryPerimeter=0;labelBackgroundColor=default;strokeColor=default;fontFamily=Helvetica;fontSize=11;fontColor=default;endArrow=none;endFill=0;" parent="1" source="CXuXiEM2NnwDOHn-P2QW-15" target="CXuXiEM2NnwDOHn-P2QW-29" edge="1">
          <mxGeometry relative="1" as="geometry" />
        </mxCell>
        <mxCell id="CXuXiEM2NnwDOHn-P2QW-15" value="" style="pointerEvents=1;verticalLabelPosition=bottom;shadow=0;dashed=0;align=center;html=1;verticalAlign=top;shape=mxgraph.electrical.signal_sources.source;aspect=fixed;points=[[0.5,0,0],[1,0.5,0],[0.5,1,0],[0,0.5,0]];elSignalType=dc1;direction=south;" parent="1" vertex="1">
          <mxGeometry x="390" y="190" width="60" height="60" as="geometry" />
        </mxCell>
        <mxCell id="CXuXiEM2NnwDOHn-P2QW-19" value="" style="group" parent="1" vertex="1" connectable="0">
          <mxGeometry x="240" y="150" width="280" height="20" as="geometry" />
        </mxCell>
        <mxCell id="CXuXiEM2NnwDOHn-P2QW-17" value="" style="shape=waypoint;sketch=0;fillStyle=solid;size=6;pointerEvents=1;points=[];fillColor=none;resizable=0;rotatable=0;perimeter=centerPerimeter;snapToPoint=1;fontFamily=Helvetica;fontSize=11;fontColor=default;" parent="CXuXiEM2NnwDOHn-P2QW-19" vertex="1">
          <mxGeometry x="70" width="20" height="20" as="geometry" />
        </mxCell>
        <mxCell id="CXuXiEM2NnwDOHn-P2QW-18" value="" style="shape=waypoint;sketch=0;fillStyle=solid;size=6;pointerEvents=1;points=[];fillColor=none;resizable=0;rotatable=0;perimeter=centerPerimeter;snapToPoint=1;fontFamily=Helvetica;fontSize=11;fontColor=default;" parent="CXuXiEM2NnwDOHn-P2QW-19" vertex="1">
          <mxGeometry x="170" width="20" height="20" as="geometry" />
        </mxCell>
        <mxCell id="CXuXiEM2NnwDOHn-P2QW-171" value="" style="verticalLabelPosition=bottom;shadow=0;dashed=0;align=center;html=1;verticalAlign=top;strokeWidth=1;shape=ellipse;perimeter=ellipsePerimeter;fontFamily=Helvetica;fontSize=11;fontColor=default;aspect=fixed;" parent="CXuXiEM2NnwDOHn-P2QW-19" vertex="1">
          <mxGeometry x="-3" y="7" width="6" height="6" as="geometry" />
        </mxCell>
        <mxCell id="CXuXiEM2NnwDOHn-P2QW-49" style="edgeStyle=orthogonalEdgeStyle;shape=connector;rounded=0;orthogonalLoop=1;jettySize=auto;html=1;entryX=0.345;entryY=0.501;entryDx=0;entryDy=0;entryPerimeter=0;labelBackgroundColor=default;strokeColor=default;fontFamily=Helvetica;fontSize=11;fontColor=default;endArrow=none;endFill=0;" parent="1" source="CXuXiEM2NnwDOHn-P2QW-22" target="CXuXiEM2NnwDOHn-P2QW-47" edge="1">
          <mxGeometry relative="1" as="geometry" />
        </mxCell>
        <mxCell id="CXuXiEM2NnwDOHn-P2QW-22" value="" style="shape=waypoint;sketch=0;fillStyle=solid;size=6;pointerEvents=1;points=[];fillColor=none;resizable=0;rotatable=0;perimeter=centerPerimeter;snapToPoint=1;fontFamily=Helvetica;fontSize=11;fontColor=default;" parent="1" vertex="1">
          <mxGeometry x="310" y="470" width="20" height="20" as="geometry" />
        </mxCell>
        <mxCell id="CXuXiEM2NnwDOHn-P2QW-116" style="edgeStyle=orthogonalEdgeStyle;shape=connector;rounded=0;orthogonalLoop=1;jettySize=auto;html=1;labelBackgroundColor=default;strokeColor=default;fontFamily=Helvetica;fontSize=11;fontColor=default;endArrow=none;endFill=0;" parent="1" source="CXuXiEM2NnwDOHn-P2QW-23" target="CXuXiEM2NnwDOHn-P2QW-114" edge="1">
          <mxGeometry relative="1" as="geometry" />
        </mxCell>
        <mxCell id="CXuXiEM2NnwDOHn-P2QW-23" value="" style="shape=waypoint;sketch=0;fillStyle=solid;size=6;pointerEvents=1;points=[];fillColor=none;resizable=0;rotatable=0;perimeter=centerPerimeter;snapToPoint=1;fontFamily=Helvetica;fontSize=11;fontColor=default;" parent="1" vertex="1">
          <mxGeometry x="410" y="490" width="20" height="20" as="geometry" />
        </mxCell>
        <mxCell id="CXuXiEM2NnwDOHn-P2QW-110" style="edgeStyle=orthogonalEdgeStyle;shape=connector;rounded=0;orthogonalLoop=1;jettySize=auto;html=1;entryX=0.5;entryY=0.5;entryDx=0;entryDy=0;entryPerimeter=0;labelBackgroundColor=default;strokeColor=default;fontFamily=Helvetica;fontSize=11;fontColor=default;endArrow=none;endFill=0;" parent="1" source="CXuXiEM2NnwDOHn-P2QW-29" target="CXuXiEM2NnwDOHn-P2QW-23" edge="1">
          <mxGeometry relative="1" as="geometry" />
        </mxCell>
        <mxCell id="CXuXiEM2NnwDOHn-P2QW-29" value="" style="shape=waypoint;sketch=0;fillStyle=solid;size=6;pointerEvents=1;points=[];fillColor=none;resizable=0;rotatable=0;perimeter=centerPerimeter;snapToPoint=1;fontFamily=Helvetica;fontSize=11;fontColor=default;" parent="1" vertex="1">
          <mxGeometry x="410" y="390" width="20" height="20" as="geometry" />
        </mxCell>
        <mxCell id="CXuXiEM2NnwDOHn-P2QW-109" style="edgeStyle=orthogonalEdgeStyle;shape=connector;rounded=0;orthogonalLoop=1;jettySize=auto;html=1;entryX=0.65;entryY=0.52;entryDx=0;entryDy=0;entryPerimeter=0;labelBackgroundColor=default;strokeColor=default;fontFamily=Helvetica;fontSize=11;fontColor=default;endArrow=none;endFill=0;" parent="1" source="CXuXiEM2NnwDOHn-P2QW-30" target="CXuXiEM2NnwDOHn-P2QW-22" edge="1">
          <mxGeometry relative="1" as="geometry" />
        </mxCell>
        <mxCell id="CXuXiEM2NnwDOHn-P2QW-30" value="" style="shape=waypoint;sketch=0;fillStyle=solid;size=6;pointerEvents=1;points=[];fillColor=none;resizable=0;rotatable=0;perimeter=centerPerimeter;snapToPoint=1;fontFamily=Helvetica;fontSize=11;fontColor=default;" parent="1" vertex="1">
          <mxGeometry x="310" y="350" width="20" height="20" as="geometry" />
        </mxCell>
        <mxCell id="CXuXiEM2NnwDOHn-P2QW-61" style="edgeStyle=orthogonalEdgeStyle;shape=connector;rounded=0;orthogonalLoop=1;jettySize=auto;html=1;exitX=1;exitY=0;exitDx=0;exitDy=0;exitPerimeter=0;labelBackgroundColor=default;strokeColor=default;fontFamily=Helvetica;fontSize=11;fontColor=default;endArrow=none;endFill=0;" parent="1" source="CXuXiEM2NnwDOHn-P2QW-38" target="CXuXiEM2NnwDOHn-P2QW-58" edge="1">
          <mxGeometry relative="1" as="geometry" />
        </mxCell>
        <mxCell id="CXuXiEM2NnwDOHn-P2QW-87" style="edgeStyle=orthogonalEdgeStyle;shape=connector;rounded=0;orthogonalLoop=1;jettySize=auto;html=1;exitX=1;exitY=1;exitDx=0;exitDy=0;exitPerimeter=0;entryX=0.425;entryY=0.398;entryDx=0;entryDy=0;entryPerimeter=0;labelBackgroundColor=default;strokeColor=default;fontFamily=Helvetica;fontSize=11;fontColor=default;endArrow=none;endFill=0;" parent="1" source="CXuXiEM2NnwDOHn-P2QW-38" target="CXuXiEM2NnwDOHn-P2QW-84" edge="1">
          <mxGeometry relative="1" as="geometry" />
        </mxCell>
        <mxCell id="CXuXiEM2NnwDOHn-P2QW-113" style="edgeStyle=orthogonalEdgeStyle;shape=connector;rounded=0;orthogonalLoop=1;jettySize=auto;html=1;exitX=0;exitY=0.5;exitDx=0;exitDy=0;exitPerimeter=0;entryX=1.01;entryY=0.42;entryDx=0;entryDy=0;entryPerimeter=0;labelBackgroundColor=default;strokeColor=default;fontFamily=Helvetica;fontSize=11;fontColor=default;endArrow=none;endFill=0;" parent="1" source="CXuXiEM2NnwDOHn-P2QW-38" target="CXuXiEM2NnwDOHn-P2QW-47" edge="1">
          <mxGeometry relative="1" as="geometry">
            <Array as="points">
              <mxPoint x="540" y="480" />
            </Array>
          </mxGeometry>
        </mxCell>
        <mxCell id="CXuXiEM2NnwDOHn-P2QW-38" value="" style="verticalLabelPosition=bottom;shadow=0;dashed=0;align=center;html=1;verticalAlign=top;shape=mxgraph.electrical.transistors.nmos;pointerEvents=1;" parent="1" vertex="1">
          <mxGeometry x="540" y="510" width="60" height="100" as="geometry" />
        </mxCell>
        <mxCell id="CXuXiEM2NnwDOHn-P2QW-62" style="edgeStyle=orthogonalEdgeStyle;shape=connector;rounded=0;orthogonalLoop=1;jettySize=auto;html=1;exitX=1;exitY=0;exitDx=0;exitDy=0;exitPerimeter=0;labelBackgroundColor=default;strokeColor=default;fontFamily=Helvetica;fontSize=11;fontColor=default;endArrow=none;endFill=0;" parent="1" source="CXuXiEM2NnwDOHn-P2QW-39" target="CXuXiEM2NnwDOHn-P2QW-57" edge="1">
          <mxGeometry relative="1" as="geometry" />
        </mxCell>
        <mxCell id="CXuXiEM2NnwDOHn-P2QW-85" style="edgeStyle=orthogonalEdgeStyle;shape=connector;rounded=0;orthogonalLoop=1;jettySize=auto;html=1;exitX=1;exitY=1;exitDx=0;exitDy=0;exitPerimeter=0;entryX=0.66;entryY=0.59;entryDx=0;entryDy=0;entryPerimeter=0;labelBackgroundColor=default;strokeColor=default;fontFamily=Helvetica;fontSize=11;fontColor=default;endArrow=none;endFill=0;" parent="1" source="CXuXiEM2NnwDOHn-P2QW-39" target="CXuXiEM2NnwDOHn-P2QW-84" edge="1">
          <mxGeometry relative="1" as="geometry">
            <Array as="points">
              <mxPoint x="800" y="640" />
            </Array>
          </mxGeometry>
        </mxCell>
        <mxCell id="CXuXiEM2NnwDOHn-P2QW-117" style="edgeStyle=orthogonalEdgeStyle;shape=connector;rounded=0;orthogonalLoop=1;jettySize=auto;html=1;exitX=0;exitY=0.5;exitDx=0;exitDy=0;exitPerimeter=0;labelBackgroundColor=default;strokeColor=default;fontFamily=Helvetica;fontSize=11;fontColor=default;endArrow=none;endFill=0;" parent="1" source="CXuXiEM2NnwDOHn-P2QW-39" target="CXuXiEM2NnwDOHn-P2QW-114" edge="1">
          <mxGeometry relative="1" as="geometry">
            <Array as="points">
              <mxPoint x="700" y="560" />
              <mxPoint x="700" y="500" />
            </Array>
          </mxGeometry>
        </mxCell>
        <mxCell id="CXuXiEM2NnwDOHn-P2QW-39" value="" style="verticalLabelPosition=bottom;shadow=0;dashed=0;align=center;html=1;verticalAlign=top;shape=mxgraph.electrical.transistors.nmos;pointerEvents=1;" parent="1" vertex="1">
          <mxGeometry x="740" y="510" width="60" height="100" as="geometry" />
        </mxCell>
        <mxCell id="CXuXiEM2NnwDOHn-P2QW-59" style="edgeStyle=orthogonalEdgeStyle;shape=connector;rounded=0;orthogonalLoop=1;jettySize=auto;html=1;exitX=1;exitY=1;exitDx=0;exitDy=0;exitPerimeter=0;labelBackgroundColor=default;strokeColor=default;fontFamily=Helvetica;fontSize=11;fontColor=default;endArrow=none;endFill=0;" parent="1" source="CXuXiEM2NnwDOHn-P2QW-40" target="CXuXiEM2NnwDOHn-P2QW-58" edge="1">
          <mxGeometry relative="1" as="geometry">
            <Array as="points">
              <mxPoint x="560" y="460" />
            </Array>
          </mxGeometry>
        </mxCell>
        <mxCell id="CXuXiEM2NnwDOHn-P2QW-71" style="edgeStyle=orthogonalEdgeStyle;shape=connector;rounded=0;orthogonalLoop=1;jettySize=auto;html=1;exitX=1;exitY=0;exitDx=0;exitDy=0;exitPerimeter=0;entryX=0.575;entryY=0.616;entryDx=0;entryDy=0;entryPerimeter=0;labelBackgroundColor=default;strokeColor=default;fontFamily=Helvetica;fontSize=11;fontColor=default;endArrow=none;endFill=0;" parent="1" source="CXuXiEM2NnwDOHn-P2QW-40" target="CXuXiEM2NnwDOHn-P2QW-70" edge="1">
          <mxGeometry relative="1" as="geometry" />
        </mxCell>
        <mxCell id="CXuXiEM2NnwDOHn-P2QW-107" style="edgeStyle=orthogonalEdgeStyle;shape=connector;rounded=0;orthogonalLoop=1;jettySize=auto;html=1;exitX=0;exitY=0.5;exitDx=0;exitDy=0;exitPerimeter=0;entryX=1;entryY=0.5;entryDx=0;entryDy=0;labelBackgroundColor=default;strokeColor=default;fontFamily=Helvetica;fontSize=11;fontColor=default;endArrow=none;endFill=0;" parent="1" source="CXuXiEM2NnwDOHn-P2QW-40" target="CXuXiEM2NnwDOHn-P2QW-101" edge="1">
          <mxGeometry relative="1" as="geometry" />
        </mxCell>
        <mxCell id="CXuXiEM2NnwDOHn-P2QW-40" value="" style="verticalLabelPosition=bottom;shadow=0;dashed=0;align=center;html=1;verticalAlign=top;shape=mxgraph.electrical.transistors.nmos;pointerEvents=1;" parent="1" vertex="1">
          <mxGeometry x="500" y="350" width="60" height="100" as="geometry" />
        </mxCell>
        <mxCell id="CXuXiEM2NnwDOHn-P2QW-56" style="edgeStyle=orthogonalEdgeStyle;shape=connector;rounded=0;orthogonalLoop=1;jettySize=auto;html=1;exitX=0;exitY=0.5;exitDx=0;exitDy=0;exitPerimeter=0;entryX=0.394;entryY=0.486;entryDx=0;entryDy=0;entryPerimeter=0;labelBackgroundColor=default;strokeColor=default;fontFamily=Helvetica;fontSize=11;fontColor=default;endArrow=none;endFill=0;" parent="1" source="CXuXiEM2NnwDOHn-P2QW-41" target="CXuXiEM2NnwDOHn-P2QW-54" edge="1">
          <mxGeometry relative="1" as="geometry" />
        </mxCell>
        <mxCell id="CXuXiEM2NnwDOHn-P2QW-60" style="edgeStyle=orthogonalEdgeStyle;shape=connector;rounded=0;orthogonalLoop=1;jettySize=auto;html=1;exitX=1;exitY=1;exitDx=0;exitDy=0;exitPerimeter=0;entryX=0.632;entryY=0.501;entryDx=0;entryDy=0;entryPerimeter=0;labelBackgroundColor=default;strokeColor=default;fontFamily=Helvetica;fontSize=11;fontColor=default;endArrow=none;endFill=0;" parent="1" source="CXuXiEM2NnwDOHn-P2QW-41" target="CXuXiEM2NnwDOHn-P2QW-58" edge="1">
          <mxGeometry relative="1" as="geometry">
            <Array as="points">
              <mxPoint x="640" y="460" />
            </Array>
          </mxGeometry>
        </mxCell>
        <mxCell id="CXuXiEM2NnwDOHn-P2QW-77" style="edgeStyle=orthogonalEdgeStyle;shape=connector;rounded=0;orthogonalLoop=1;jettySize=auto;html=1;exitX=1;exitY=0;exitDx=0;exitDy=0;exitPerimeter=0;entryX=0.011;entryY=0.363;entryDx=0;entryDy=0;entryPerimeter=0;labelBackgroundColor=default;strokeColor=default;fontFamily=Helvetica;fontSize=11;fontColor=default;endArrow=none;endFill=0;" parent="1" source="CXuXiEM2NnwDOHn-P2QW-41" target="CXuXiEM2NnwDOHn-P2QW-69" edge="1">
          <mxGeometry relative="1" as="geometry">
            <Array as="points">
              <mxPoint x="640" y="320" />
            </Array>
          </mxGeometry>
        </mxCell>
        <mxCell id="CXuXiEM2NnwDOHn-P2QW-41" value="" style="verticalLabelPosition=bottom;shadow=0;dashed=0;align=center;html=1;verticalAlign=top;shape=mxgraph.electrical.transistors.nmos;pointerEvents=1;flipH=1;" parent="1" vertex="1">
          <mxGeometry x="640" y="350" width="60" height="100" as="geometry" />
        </mxCell>
        <mxCell id="CXuXiEM2NnwDOHn-P2QW-47" value="" style="shape=waypoint;sketch=0;fillStyle=solid;size=6;pointerEvents=1;points=[];fillColor=none;resizable=0;rotatable=0;perimeter=centerPerimeter;snapToPoint=1;fontFamily=Helvetica;fontSize=11;fontColor=default;" parent="1" vertex="1">
          <mxGeometry x="370" y="470" width="20" height="20" as="geometry" />
        </mxCell>
        <mxCell id="CXuXiEM2NnwDOHn-P2QW-55" style="edgeStyle=orthogonalEdgeStyle;shape=connector;rounded=0;orthogonalLoop=1;jettySize=auto;html=1;exitX=0;exitY=0.5;exitDx=0;exitDy=0;exitPerimeter=0;labelBackgroundColor=default;strokeColor=default;fontFamily=Helvetica;fontSize=11;fontColor=default;endArrow=none;endFill=0;" parent="1" source="CXuXiEM2NnwDOHn-P2QW-52" target="CXuXiEM2NnwDOHn-P2QW-54" edge="1">
          <mxGeometry relative="1" as="geometry" />
        </mxCell>
        <mxCell id="CXuXiEM2NnwDOHn-P2QW-64" style="edgeStyle=orthogonalEdgeStyle;shape=connector;rounded=0;orthogonalLoop=1;jettySize=auto;html=1;exitX=1;exitY=1;exitDx=0;exitDy=0;exitPerimeter=0;entryX=0.475;entryY=0.05;entryDx=0;entryDy=0;entryPerimeter=0;labelBackgroundColor=default;strokeColor=default;fontFamily=Helvetica;fontSize=11;fontColor=default;endArrow=none;endFill=0;" parent="1" source="CXuXiEM2NnwDOHn-P2QW-52" target="CXuXiEM2NnwDOHn-P2QW-57" edge="1">
          <mxGeometry relative="1" as="geometry">
            <Array as="points">
              <mxPoint x="760" y="460" />
            </Array>
          </mxGeometry>
        </mxCell>
        <mxCell id="CXuXiEM2NnwDOHn-P2QW-74" style="edgeStyle=orthogonalEdgeStyle;shape=connector;rounded=0;orthogonalLoop=1;jettySize=auto;html=1;exitX=1;exitY=0;exitDx=0;exitDy=0;exitPerimeter=0;entryX=0.977;entryY=0.639;entryDx=0;entryDy=0;entryPerimeter=0;labelBackgroundColor=default;strokeColor=default;fontFamily=Helvetica;fontSize=11;fontColor=default;endArrow=none;endFill=0;" parent="1" source="CXuXiEM2NnwDOHn-P2QW-52" target="CXuXiEM2NnwDOHn-P2QW-70" edge="1">
          <mxGeometry relative="1" as="geometry">
            <Array as="points">
              <mxPoint x="760" y="340" />
            </Array>
          </mxGeometry>
        </mxCell>
        <mxCell id="CXuXiEM2NnwDOHn-P2QW-52" value="" style="verticalLabelPosition=bottom;shadow=0;dashed=0;align=center;html=1;verticalAlign=top;shape=mxgraph.electrical.transistors.nmos;pointerEvents=1;" parent="1" vertex="1">
          <mxGeometry x="700" y="350" width="60" height="100" as="geometry" />
        </mxCell>
        <mxCell id="CXuXiEM2NnwDOHn-P2QW-63" style="edgeStyle=orthogonalEdgeStyle;shape=connector;rounded=0;orthogonalLoop=1;jettySize=auto;html=1;exitX=1;exitY=1;exitDx=0;exitDy=0;exitPerimeter=0;entryX=0.767;entryY=0.078;entryDx=0;entryDy=0;entryPerimeter=0;labelBackgroundColor=default;strokeColor=default;fontFamily=Helvetica;fontSize=11;fontColor=default;endArrow=none;endFill=0;" parent="1" source="CXuXiEM2NnwDOHn-P2QW-53" target="CXuXiEM2NnwDOHn-P2QW-57" edge="1">
          <mxGeometry relative="1" as="geometry">
            <Array as="points">
              <mxPoint x="840" y="460" />
            </Array>
          </mxGeometry>
        </mxCell>
        <mxCell id="CXuXiEM2NnwDOHn-P2QW-75" style="edgeStyle=orthogonalEdgeStyle;shape=connector;rounded=0;orthogonalLoop=1;jettySize=auto;html=1;exitX=1;exitY=0;exitDx=0;exitDy=0;exitPerimeter=0;labelBackgroundColor=default;strokeColor=default;fontFamily=Helvetica;fontSize=11;fontColor=default;endArrow=none;endFill=0;" parent="1" source="CXuXiEM2NnwDOHn-P2QW-53" target="CXuXiEM2NnwDOHn-P2QW-69" edge="1">
          <mxGeometry relative="1" as="geometry" />
        </mxCell>
        <mxCell id="CXuXiEM2NnwDOHn-P2QW-104" style="edgeStyle=orthogonalEdgeStyle;shape=connector;rounded=0;orthogonalLoop=1;jettySize=auto;html=1;exitX=0;exitY=0.5;exitDx=0;exitDy=0;exitPerimeter=0;entryX=0;entryY=0.5;entryDx=0;entryDy=0;labelBackgroundColor=default;strokeColor=default;fontFamily=Helvetica;fontSize=11;fontColor=default;endArrow=none;endFill=0;" parent="1" source="CXuXiEM2NnwDOHn-P2QW-53" target="CXuXiEM2NnwDOHn-P2QW-103" edge="1">
          <mxGeometry relative="1" as="geometry" />
        </mxCell>
        <mxCell id="CXuXiEM2NnwDOHn-P2QW-53" value="" style="verticalLabelPosition=bottom;shadow=0;dashed=0;align=center;html=1;verticalAlign=top;shape=mxgraph.electrical.transistors.nmos;pointerEvents=1;flipH=1;" parent="1" vertex="1">
          <mxGeometry x="840" y="350" width="60" height="100" as="geometry" />
        </mxCell>
        <mxCell id="CXuXiEM2NnwDOHn-P2QW-54" value="" style="shape=waypoint;sketch=0;fillStyle=solid;size=6;pointerEvents=1;points=[];fillColor=none;resizable=0;rotatable=0;perimeter=centerPerimeter;snapToPoint=1;fontFamily=Helvetica;fontSize=11;fontColor=default;" parent="1" vertex="1">
          <mxGeometry x="690" y="390" width="20" height="20" as="geometry" />
        </mxCell>
        <mxCell id="CXuXiEM2NnwDOHn-P2QW-57" value="" style="shape=waypoint;sketch=0;fillStyle=solid;size=6;pointerEvents=1;points=[];fillColor=none;resizable=0;rotatable=0;perimeter=centerPerimeter;snapToPoint=1;fontFamily=Helvetica;fontSize=11;fontColor=default;" parent="1" vertex="1">
          <mxGeometry x="790" y="450" width="20" height="20" as="geometry" />
        </mxCell>
        <mxCell id="CXuXiEM2NnwDOHn-P2QW-58" value="" style="shape=waypoint;sketch=0;fillStyle=solid;size=6;pointerEvents=1;points=[];fillColor=none;resizable=0;rotatable=0;perimeter=centerPerimeter;snapToPoint=1;fontFamily=Helvetica;fontSize=11;fontColor=default;" parent="1" vertex="1">
          <mxGeometry x="590" y="450" width="20" height="20" as="geometry" />
        </mxCell>
        <mxCell id="CXuXiEM2NnwDOHn-P2QW-65" value="" style="shape=waypoint;sketch=0;fillStyle=solid;size=6;pointerEvents=1;points=[];fillColor=none;resizable=0;rotatable=0;perimeter=centerPerimeter;snapToPoint=1;fontFamily=Helvetica;fontSize=11;fontColor=default;" parent="1" vertex="1">
          <mxGeometry x="550" y="150" width="20" height="20" as="geometry" />
        </mxCell>
        <mxCell id="CXuXiEM2NnwDOHn-P2QW-68" style="edgeStyle=orthogonalEdgeStyle;shape=connector;rounded=0;orthogonalLoop=1;jettySize=auto;html=1;exitX=0;exitY=0.5;exitDx=0;exitDy=0;exitPerimeter=0;labelBackgroundColor=default;strokeColor=default;fontFamily=Helvetica;fontSize=11;fontColor=default;endArrow=none;endFill=0;" parent="1" source="CXuXiEM2NnwDOHn-P2QW-66" target="CXuXiEM2NnwDOHn-P2QW-65" edge="1">
          <mxGeometry relative="1" as="geometry">
            <Array as="points">
              <mxPoint x="840" y="160" />
            </Array>
          </mxGeometry>
        </mxCell>
        <mxCell id="CXuXiEM2NnwDOHn-P2QW-122" style="edgeStyle=orthogonalEdgeStyle;shape=connector;rounded=0;orthogonalLoop=1;jettySize=auto;html=1;exitX=1;exitY=0.5;exitDx=0;exitDy=0;exitPerimeter=0;entryX=0.476;entryY=-0.034;entryDx=0;entryDy=0;entryPerimeter=0;labelBackgroundColor=default;strokeColor=default;fontFamily=Helvetica;fontSize=11;fontColor=default;endArrow=none;endFill=0;" parent="1" source="CXuXiEM2NnwDOHn-P2QW-66" target="CXuXiEM2NnwDOHn-P2QW-119" edge="1">
          <mxGeometry relative="1" as="geometry" />
        </mxCell>
        <mxCell id="CXuXiEM2NnwDOHn-P2QW-66" value="" style="pointerEvents=1;verticalLabelPosition=bottom;shadow=0;dashed=0;align=center;html=1;verticalAlign=top;shape=mxgraph.electrical.resistors.resistor_1;direction=south;" parent="1" vertex="1">
          <mxGeometry x="830" y="160" width="20" height="100" as="geometry" />
        </mxCell>
        <mxCell id="CXuXiEM2NnwDOHn-P2QW-69" value="" style="shape=waypoint;sketch=0;fillStyle=solid;size=6;pointerEvents=1;points=[];fillColor=none;resizable=0;rotatable=0;perimeter=centerPerimeter;snapToPoint=1;fontFamily=Helvetica;fontSize=11;fontColor=default;" parent="1" vertex="1">
          <mxGeometry x="830" y="310" width="20" height="20" as="geometry" />
        </mxCell>
        <mxCell id="CXuXiEM2NnwDOHn-P2QW-70" value="" style="shape=waypoint;sketch=0;fillStyle=solid;size=6;pointerEvents=1;points=[];fillColor=none;resizable=0;rotatable=0;perimeter=centerPerimeter;snapToPoint=1;fontFamily=Helvetica;fontSize=11;fontColor=default;" parent="1" vertex="1">
          <mxGeometry x="550" y="330" width="20" height="20" as="geometry" />
        </mxCell>
        <mxCell id="CXuXiEM2NnwDOHn-P2QW-94" style="edgeStyle=orthogonalEdgeStyle;shape=connector;rounded=0;orthogonalLoop=1;jettySize=auto;html=1;exitX=0.5;exitY=0;exitDx=0;exitDy=0;exitPerimeter=0;labelBackgroundColor=default;strokeColor=default;fontFamily=Helvetica;fontSize=11;fontColor=default;endArrow=none;endFill=0;" parent="1" source="CXuXiEM2NnwDOHn-P2QW-78" target="CXuXiEM2NnwDOHn-P2QW-81" edge="1">
          <mxGeometry relative="1" as="geometry" />
        </mxCell>
        <mxCell id="CXuXiEM2NnwDOHn-P2QW-78" value="" style="pointerEvents=1;verticalLabelPosition=bottom;shadow=0;dashed=0;align=center;html=1;verticalAlign=top;shape=mxgraph.electrical.signal_sources.signal_ground;fontFamily=Helvetica;fontSize=11;fontColor=default;" parent="1" vertex="1">
          <mxGeometry x="137.5" y="670" width="45" height="30" as="geometry" />
        </mxCell>
        <mxCell id="CXuXiEM2NnwDOHn-P2QW-81" value="" style="shape=waypoint;sketch=0;fillStyle=solid;size=6;pointerEvents=1;points=[];fillColor=none;resizable=0;rotatable=0;perimeter=centerPerimeter;snapToPoint=1;fontFamily=Helvetica;fontSize=11;fontColor=default;" parent="1" vertex="1">
          <mxGeometry x="150" y="630" width="20" height="20" as="geometry" />
        </mxCell>
        <mxCell id="CXuXiEM2NnwDOHn-P2QW-92" style="edgeStyle=orthogonalEdgeStyle;shape=connector;rounded=0;orthogonalLoop=1;jettySize=auto;html=1;entryX=0.644;entryY=0.49;entryDx=0;entryDy=0;entryPerimeter=0;labelBackgroundColor=default;strokeColor=default;fontFamily=Helvetica;fontSize=11;fontColor=default;endArrow=none;endFill=0;" parent="1" source="CXuXiEM2NnwDOHn-P2QW-82" target="CXuXiEM2NnwDOHn-P2QW-81" edge="1">
          <mxGeometry relative="1" as="geometry" />
        </mxCell>
        <mxCell id="CXuXiEM2NnwDOHn-P2QW-82" value="" style="shape=waypoint;sketch=0;fillStyle=solid;size=6;pointerEvents=1;points=[];fillColor=none;resizable=0;rotatable=0;perimeter=centerPerimeter;snapToPoint=1;fontFamily=Helvetica;fontSize=11;fontColor=default;" parent="1" vertex="1">
          <mxGeometry x="310" y="630" width="20" height="20" as="geometry" />
        </mxCell>
        <mxCell id="CXuXiEM2NnwDOHn-P2QW-90" style="edgeStyle=orthogonalEdgeStyle;shape=connector;rounded=0;orthogonalLoop=1;jettySize=auto;html=1;labelBackgroundColor=default;strokeColor=default;fontFamily=Helvetica;fontSize=11;fontColor=default;endArrow=none;endFill=0;" parent="1" source="CXuXiEM2NnwDOHn-P2QW-83" target="CXuXiEM2NnwDOHn-P2QW-82" edge="1">
          <mxGeometry relative="1" as="geometry" />
        </mxCell>
        <mxCell id="CXuXiEM2NnwDOHn-P2QW-83" value="" style="shape=waypoint;sketch=0;fillStyle=solid;size=6;pointerEvents=1;points=[];fillColor=none;resizable=0;rotatable=0;perimeter=centerPerimeter;snapToPoint=1;fontFamily=Helvetica;fontSize=11;fontColor=default;" parent="1" vertex="1">
          <mxGeometry x="410" y="630" width="20" height="20" as="geometry" />
        </mxCell>
        <mxCell id="CXuXiEM2NnwDOHn-P2QW-88" style="edgeStyle=orthogonalEdgeStyle;shape=connector;rounded=0;orthogonalLoop=1;jettySize=auto;html=1;entryX=0.667;entryY=0.501;entryDx=0;entryDy=0;entryPerimeter=0;labelBackgroundColor=default;strokeColor=default;fontFamily=Helvetica;fontSize=11;fontColor=default;endArrow=none;endFill=0;" parent="1" source="CXuXiEM2NnwDOHn-P2QW-84" target="CXuXiEM2NnwDOHn-P2QW-83" edge="1">
          <mxGeometry relative="1" as="geometry" />
        </mxCell>
        <mxCell id="CXuXiEM2NnwDOHn-P2QW-84" value="" style="shape=waypoint;sketch=0;fillStyle=solid;size=6;pointerEvents=1;points=[];fillColor=none;resizable=0;rotatable=0;perimeter=centerPerimeter;snapToPoint=1;fontFamily=Helvetica;fontSize=11;fontColor=default;" parent="1" vertex="1">
          <mxGeometry x="590" y="630" width="20" height="20" as="geometry" />
        </mxCell>
        <mxCell id="CXuXiEM2NnwDOHn-P2QW-95" value="" style="verticalLabelPosition=bottom;shadow=0;dashed=0;align=center;html=1;verticalAlign=top;strokeWidth=1;shape=ellipse;perimeter=ellipsePerimeter;fontFamily=Helvetica;fontSize=11;fontColor=default;aspect=fixed;" parent="1" vertex="1">
          <mxGeometry x="37" y="457" width="6" height="6" as="geometry" />
        </mxCell>
        <mxCell id="CXuXiEM2NnwDOHn-P2QW-97" value="" style="verticalLabelPosition=bottom;shadow=0;dashed=0;align=center;html=1;verticalAlign=top;strokeWidth=1;shape=ellipse;perimeter=ellipsePerimeter;fontFamily=Helvetica;fontSize=11;fontColor=default;aspect=fixed;" parent="1" vertex="1">
          <mxGeometry x="277" y="457" width="6" height="6" as="geometry" />
        </mxCell>
        <mxCell id="CXuXiEM2NnwDOHn-P2QW-101" value="" style="verticalLabelPosition=bottom;shadow=0;dashed=0;align=center;html=1;verticalAlign=top;strokeWidth=1;shape=ellipse;perimeter=ellipsePerimeter;fontFamily=Helvetica;fontSize=11;fontColor=default;aspect=fixed;" parent="1" vertex="1">
          <mxGeometry x="477" y="397" width="6" height="6" as="geometry" />
        </mxCell>
        <mxCell id="CXuXiEM2NnwDOHn-P2QW-105" style="edgeStyle=orthogonalEdgeStyle;shape=connector;rounded=0;orthogonalLoop=1;jettySize=auto;html=1;exitX=0.5;exitY=0;exitDx=0;exitDy=0;entryX=0.028;entryY=0.702;entryDx=0;entryDy=0;entryPerimeter=0;labelBackgroundColor=default;strokeColor=default;fontFamily=Helvetica;fontSize=11;fontColor=default;endArrow=none;endFill=0;" parent="1" source="CXuXiEM2NnwDOHn-P2QW-102" target="CXuXiEM2NnwDOHn-P2QW-54" edge="1">
          <mxGeometry relative="1" as="geometry" />
        </mxCell>
        <mxCell id="CXuXiEM2NnwDOHn-P2QW-102" value="" style="verticalLabelPosition=bottom;shadow=0;dashed=0;align=center;html=1;verticalAlign=top;strokeWidth=1;shape=ellipse;perimeter=ellipsePerimeter;fontFamily=Helvetica;fontSize=11;fontColor=default;aspect=fixed;" parent="1" vertex="1">
          <mxGeometry x="697" y="437" width="6" height="6" as="geometry" />
        </mxCell>
        <mxCell id="CXuXiEM2NnwDOHn-P2QW-103" value="" style="verticalLabelPosition=bottom;shadow=0;dashed=0;align=center;html=1;verticalAlign=top;strokeWidth=1;shape=ellipse;perimeter=ellipsePerimeter;fontFamily=Helvetica;fontSize=11;fontColor=default;aspect=fixed;" parent="1" vertex="1">
          <mxGeometry x="917" y="397" width="6" height="6" as="geometry" />
        </mxCell>
        <mxCell id="CXuXiEM2NnwDOHn-P2QW-108" value="&lt;font style=&quot;font-size: 20px;&quot;&gt;`V_{lbias}+v_{i n}`&lt;/font&gt;" style="text;html=1;align=center;verticalAlign=middle;resizable=0;points=[];autosize=1;strokeColor=none;fillColor=none;fontSize=20;fontFamily=Helvetica;fontColor=default;" parent="1" vertex="1">
          <mxGeometry x="-26" y="403" width="180" height="40" as="geometry" />
        </mxCell>
        <mxCell id="CXuXiEM2NnwDOHn-P2QW-114" value="" style="shape=waypoint;sketch=0;fillStyle=solid;size=6;pointerEvents=1;points=[];fillColor=none;resizable=0;rotatable=0;perimeter=centerPerimeter;snapToPoint=1;fontFamily=Helvetica;fontSize=11;fontColor=default;" parent="1" vertex="1">
          <mxGeometry x="470" y="490" width="20" height="20" as="geometry" />
        </mxCell>
        <mxCell id="CXuXiEM2NnwDOHn-P2QW-120" style="edgeStyle=orthogonalEdgeStyle;shape=connector;rounded=0;orthogonalLoop=1;jettySize=auto;html=1;entryX=1;entryY=0.5;entryDx=0;entryDy=0;entryPerimeter=0;labelBackgroundColor=default;strokeColor=default;fontFamily=Helvetica;fontSize=11;fontColor=default;endArrow=none;endFill=0;" parent="1" source="CXuXiEM2NnwDOHn-P2QW-118" target="CXuXiEM2NnwDOHn-P2QW-3" edge="1">
          <mxGeometry relative="1" as="geometry" />
        </mxCell>
        <mxCell id="CXuXiEM2NnwDOHn-P2QW-121" style="edgeStyle=orthogonalEdgeStyle;shape=connector;rounded=0;orthogonalLoop=1;jettySize=auto;html=1;labelBackgroundColor=default;strokeColor=default;fontFamily=Helvetica;fontSize=11;fontColor=default;endArrow=none;endFill=0;" parent="1" source="CXuXiEM2NnwDOHn-P2QW-118" target="CXuXiEM2NnwDOHn-P2QW-70" edge="1">
          <mxGeometry relative="1" as="geometry" />
        </mxCell>
        <mxCell id="CXuXiEM2NnwDOHn-P2QW-118" value="" style="shape=waypoint;sketch=0;fillStyle=solid;size=6;pointerEvents=1;points=[];fillColor=none;resizable=0;rotatable=0;perimeter=centerPerimeter;snapToPoint=1;fontFamily=Helvetica;fontSize=11;fontColor=default;" parent="1" vertex="1">
          <mxGeometry x="550" y="270" width="20" height="20" as="geometry" />
        </mxCell>
        <mxCell id="CXuXiEM2NnwDOHn-P2QW-123" style="edgeStyle=orthogonalEdgeStyle;shape=connector;rounded=0;orthogonalLoop=1;jettySize=auto;html=1;entryX=0.468;entryY=0.03;entryDx=0;entryDy=0;entryPerimeter=0;labelBackgroundColor=default;strokeColor=default;fontFamily=Helvetica;fontSize=11;fontColor=default;endArrow=none;endFill=0;" parent="1" source="CXuXiEM2NnwDOHn-P2QW-119" target="CXuXiEM2NnwDOHn-P2QW-69" edge="1">
          <mxGeometry relative="1" as="geometry" />
        </mxCell>
        <mxCell id="CXuXiEM2NnwDOHn-P2QW-119" value="" style="shape=waypoint;sketch=0;fillStyle=solid;size=6;pointerEvents=1;points=[];fillColor=none;resizable=0;rotatable=0;perimeter=centerPerimeter;snapToPoint=1;fontFamily=Helvetica;fontSize=11;fontColor=default;" parent="1" vertex="1">
          <mxGeometry x="830" y="270" width="20" height="20" as="geometry" />
        </mxCell>
        <mxCell id="CXuXiEM2NnwDOHn-P2QW-126" style="edgeStyle=orthogonalEdgeStyle;shape=connector;rounded=0;orthogonalLoop=1;jettySize=auto;html=1;exitX=0;exitY=0.5;exitDx=0;exitDy=0;labelBackgroundColor=default;strokeColor=default;fontFamily=Helvetica;fontSize=11;fontColor=default;endArrow=none;endFill=0;" parent="1" source="CXuXiEM2NnwDOHn-P2QW-124" target="CXuXiEM2NnwDOHn-P2QW-118" edge="1">
          <mxGeometry relative="1" as="geometry" />
        </mxCell>
        <mxCell id="CXuXiEM2NnwDOHn-P2QW-124" value="" style="verticalLabelPosition=bottom;shadow=0;dashed=0;align=center;html=1;verticalAlign=top;strokeWidth=1;shape=ellipse;perimeter=ellipsePerimeter;fontFamily=Helvetica;fontSize=11;fontColor=default;aspect=fixed;" parent="1" vertex="1">
          <mxGeometry x="637" y="277" width="6" height="6" as="geometry" />
        </mxCell>
        <mxCell id="CXuXiEM2NnwDOHn-P2QW-127" style="edgeStyle=orthogonalEdgeStyle;shape=connector;rounded=0;orthogonalLoop=1;jettySize=auto;html=1;exitX=1;exitY=0.5;exitDx=0;exitDy=0;labelBackgroundColor=default;strokeColor=default;fontFamily=Helvetica;fontSize=11;fontColor=default;endArrow=none;endFill=0;" parent="1" source="CXuXiEM2NnwDOHn-P2QW-125" target="CXuXiEM2NnwDOHn-P2QW-119" edge="1">
          <mxGeometry relative="1" as="geometry" />
        </mxCell>
        <mxCell id="CXuXiEM2NnwDOHn-P2QW-125" value="" style="verticalLabelPosition=bottom;shadow=0;dashed=0;align=center;html=1;verticalAlign=top;strokeWidth=1;shape=ellipse;perimeter=ellipsePerimeter;fontFamily=Helvetica;fontSize=11;fontColor=default;aspect=fixed;" parent="1" vertex="1">
          <mxGeometry x="757" y="277" width="6" height="6" as="geometry" />
        </mxCell>
        <mxCell id="CXuXiEM2NnwDOHn-P2QW-128" value="&lt;font style=&quot;font-size: 20px;&quot;&gt;`V_{out}+\Delta v`&lt;/font&gt;" style="text;html=1;align=center;verticalAlign=middle;resizable=0;points=[];autosize=1;strokeColor=none;fillColor=none;fontSize=11;fontFamily=Helvetica;fontColor=default;" parent="1" vertex="1">
          <mxGeometry x="540" y="243" width="180" height="40" as="geometry" />
        </mxCell>
        <mxCell id="CXuXiEM2NnwDOHn-P2QW-129" value="&lt;font style=&quot;font-size: 20px;&quot;&gt;`V_{out}-\Delta v`&lt;/font&gt;" style="text;html=1;align=center;verticalAlign=middle;resizable=0;points=[];autosize=1;strokeColor=none;fillColor=none;fontSize=11;fontFamily=Helvetica;fontColor=default;" parent="1" vertex="1">
          <mxGeometry x="680" y="240" width="180" height="40" as="geometry" />
        </mxCell>
        <mxCell id="CXuXiEM2NnwDOHn-P2QW-130" value="&lt;font style=&quot;font-size: 20px;&quot;&gt;`R_{L}`&lt;/font&gt;" style="text;html=1;align=center;verticalAlign=middle;resizable=0;points=[];autosize=1;strokeColor=none;fillColor=none;fontSize=11;fontFamily=Helvetica;fontColor=default;" parent="1" vertex="1">
          <mxGeometry x="547" y="200" width="90" height="40" as="geometry" />
        </mxCell>
        <mxCell id="CXuXiEM2NnwDOHn-P2QW-131" value="&lt;font style=&quot;font-size: 20px;&quot;&gt;`R_{L}`&lt;/font&gt;" style="text;html=1;align=center;verticalAlign=middle;resizable=0;points=[];autosize=1;strokeColor=none;fillColor=none;fontSize=11;fontFamily=Helvetica;fontColor=default;" parent="1" vertex="1">
          <mxGeometry x="763" y="200" width="90" height="40" as="geometry" />
        </mxCell>
        <mxCell id="CXuXiEM2NnwDOHn-P2QW-132" value="&lt;font style=&quot;font-size: 17px;&quot;&gt;`V_{rbias}-V_{CTRL}`&lt;/font&gt;" style="text;html=1;align=center;verticalAlign=middle;resizable=0;points=[];autosize=1;strokeColor=none;fillColor=none;fontSize=11;fontFamily=Helvetica;fontColor=default;" parent="1" vertex="1">
          <mxGeometry x="390" y="350" width="190" height="30" as="geometry" />
        </mxCell>
        <mxCell id="CXuXiEM2NnwDOHn-P2QW-135" value="&lt;font style=&quot;font-size: 17px;&quot;&gt;`V_{rbias}-V_{CTRL}`&lt;/font&gt;" style="text;html=1;align=center;verticalAlign=middle;resizable=0;points=[];autosize=1;strokeColor=none;fillColor=none;fontSize=11;fontFamily=Helvetica;fontColor=default;" parent="1" vertex="1">
          <mxGeometry x="825" y="350" width="190" height="30" as="geometry" />
        </mxCell>
        <mxCell id="CXuXiEM2NnwDOHn-P2QW-136" value="&lt;font style=&quot;font-size: 16px;&quot;&gt;`V_{rbias}+V_{CTRL}`&lt;/font&gt;" style="text;html=1;align=center;verticalAlign=middle;resizable=0;points=[];autosize=1;strokeColor=none;fillColor=none;fontSize=16;fontFamily=Helvetica;fontColor=default;" parent="1" vertex="1">
          <mxGeometry x="610" y="445" width="180" height="30" as="geometry" />
        </mxCell>
        <mxCell id="CXuXiEM2NnwDOHn-P2QW-137" value="&lt;font style=&quot;font-size: 20px;&quot;&gt;`V_{lbias}-v_{i n}`&lt;/font&gt;" style="text;html=1;align=center;verticalAlign=middle;resizable=0;points=[];autosize=1;strokeColor=none;fillColor=none;fontSize=20;fontFamily=Helvetica;fontColor=default;" parent="1" vertex="1">
          <mxGeometry x="170" y="403" width="180" height="40" as="geometry" />
        </mxCell>
        <mxCell id="CXuXiEM2NnwDOHn-P2QW-138" value="&lt;font style=&quot;font-size: 20px;&quot;&gt;`I_{U}`&lt;/font&gt;" style="text;html=1;align=center;verticalAlign=middle;resizable=0;points=[];autosize=1;strokeColor=none;fillColor=none;fontSize=11;fontFamily=Helvetica;fontColor=default;" parent="1" vertex="1">
          <mxGeometry x="250" y="240" width="80" height="40" as="geometry" />
        </mxCell>
        <mxCell id="CXuXiEM2NnwDOHn-P2QW-139" value="&lt;font style=&quot;font-size: 20px;&quot;&gt;`I_{U}`&lt;/font&gt;" style="text;html=1;align=center;verticalAlign=middle;resizable=0;points=[];autosize=1;strokeColor=none;fillColor=none;fontSize=11;fontFamily=Helvetica;fontColor=default;" parent="1" vertex="1">
          <mxGeometry x="403" y="240" width="80" height="40" as="geometry" />
        </mxCell>
        <mxCell id="CXuXiEM2NnwDOHn-P2QW-140" value="" style="endArrow=classic;html=1;rounded=0;labelBackgroundColor=default;strokeColor=default;fontFamily=Helvetica;fontSize=11;fontColor=default;shape=connector;" parent="1" edge="1">
          <mxGeometry width="50" height="50" relative="1" as="geometry">
            <mxPoint x="309.52" y="290" as="sourcePoint" />
            <mxPoint x="309.52" y="330" as="targetPoint" />
          </mxGeometry>
        </mxCell>
        <mxCell id="CXuXiEM2NnwDOHn-P2QW-141" value="" style="endArrow=classic;html=1;rounded=0;labelBackgroundColor=default;strokeColor=default;fontFamily=Helvetica;fontSize=11;fontColor=default;shape=connector;" parent="1" edge="1">
          <mxGeometry width="50" height="50" relative="1" as="geometry">
            <mxPoint x="430" y="290" as="sourcePoint" />
            <mxPoint x="430" y="330" as="targetPoint" />
          </mxGeometry>
        </mxCell>
        <mxCell id="CXuXiEM2NnwDOHn-P2QW-143" value="&lt;font style=&quot;font-size: 20px;&quot;&gt;`I_{Lbias}`&lt;/font&gt;" style="text;html=1;align=center;verticalAlign=middle;resizable=0;points=[];autosize=1;strokeColor=none;fillColor=none;fontSize=11;fontFamily=Helvetica;fontColor=default;" parent="1" vertex="1">
          <mxGeometry x="225" y="290" width="110" height="40" as="geometry" />
        </mxCell>
        <mxCell id="CXuXiEM2NnwDOHn-P2QW-144" value="&lt;font style=&quot;font-size: 20px;&quot;&gt;`I_{Lbias}`&lt;/font&gt;" style="text;html=1;align=center;verticalAlign=middle;resizable=0;points=[];autosize=1;strokeColor=none;fillColor=none;fontSize=11;fontFamily=Helvetica;fontColor=default;" parent="1" vertex="1">
          <mxGeometry x="405" y="290" width="110" height="40" as="geometry" />
        </mxCell>
        <mxCell id="CXuXiEM2NnwDOHn-P2QW-146" value="" style="endArrow=classic;html=1;rounded=0;labelBackgroundColor=default;strokeColor=default;fontFamily=Helvetica;fontSize=11;fontColor=default;shape=connector;" parent="1" edge="1">
          <mxGeometry width="50" height="50" relative="1" as="geometry">
            <mxPoint x="120.00000000000001" y="550" as="sourcePoint" />
            <mxPoint x="120.00000000000001" y="590" as="targetPoint" />
          </mxGeometry>
        </mxCell>
        <mxCell id="CXuXiEM2NnwDOHn-P2QW-147" value="" style="endArrow=classic;html=1;rounded=0;labelBackgroundColor=default;strokeColor=default;fontFamily=Helvetica;fontSize=11;fontColor=default;shape=connector;" parent="1" edge="1">
          <mxGeometry width="50" height="50" relative="1" as="geometry">
            <mxPoint x="170" y="350" as="sourcePoint" />
            <mxPoint x="130" y="350" as="targetPoint" />
          </mxGeometry>
        </mxCell>
        <mxCell id="CXuXiEM2NnwDOHn-P2QW-149" value="&lt;font style=&quot;font-size: 18px;&quot;&gt;`I_{Lbias}&quot;/&quot;2+\Delta i_{L}`&lt;/font&gt;" style="text;html=1;align=center;verticalAlign=middle;resizable=0;points=[];autosize=1;strokeColor=none;fillColor=none;fontSize=18;fontFamily=Helvetica;fontColor=default;" parent="1" vertex="1">
          <mxGeometry x="45" y="310" width="230" height="40" as="geometry" />
        </mxCell>
        <mxCell id="CXuXiEM2NnwDOHn-P2QW-150" value="" style="endArrow=classic;html=1;rounded=0;labelBackgroundColor=default;strokeColor=default;fontFamily=Helvetica;fontSize=11;fontColor=default;shape=connector;" parent="1" edge="1">
          <mxGeometry width="50" height="50" relative="1" as="geometry">
            <mxPoint x="300" y="390" as="sourcePoint" />
            <mxPoint x="260" y="390" as="targetPoint" />
          </mxGeometry>
        </mxCell>
        <mxCell id="CXuXiEM2NnwDOHn-P2QW-151" value="&lt;font style=&quot;font-size: 18px;&quot;&gt;`I_{Lbias}&quot;/&quot;2-\Deltai_{L}`&lt;/font&gt;" style="text;html=1;align=center;verticalAlign=middle;resizable=0;points=[];autosize=1;strokeColor=none;fillColor=none;fontSize=18;fontFamily=Helvetica;fontColor=default;" parent="1" vertex="1">
          <mxGeometry x="92" y="362" width="220" height="40" as="geometry" />
        </mxCell>
        <mxCell id="CXuXiEM2NnwDOHn-P2QW-152" value="" style="endArrow=classic;html=1;rounded=0;labelBackgroundColor=default;strokeColor=default;fontFamily=Helvetica;fontSize=11;fontColor=default;shape=connector;" parent="1" edge="1">
          <mxGeometry width="50" height="50" relative="1" as="geometry">
            <mxPoint x="310" y="590" as="sourcePoint" />
            <mxPoint x="310" y="630" as="targetPoint" />
          </mxGeometry>
        </mxCell>
        <mxCell id="CXuXiEM2NnwDOHn-P2QW-153" value="" style="endArrow=classic;html=1;rounded=0;labelBackgroundColor=default;strokeColor=default;fontFamily=Helvetica;fontSize=11;fontColor=default;shape=connector;" parent="1" edge="1">
          <mxGeometry width="50" height="50" relative="1" as="geometry">
            <mxPoint x="430" y="590" as="sourcePoint" />
            <mxPoint x="430" y="630" as="targetPoint" />
          </mxGeometry>
        </mxCell>
        <mxCell id="CXuXiEM2NnwDOHn-P2QW-155" value="&lt;font style=&quot;font-size: 20px;&quot;&gt;`I_{Lbias}&quot;/&quot;2+\Deltai_{L}`&lt;/font&gt;" style="text;html=1;align=center;verticalAlign=middle;resizable=0;points=[];autosize=1;strokeColor=none;fillColor=none;fontSize=11;fontFamily=Helvetica;fontColor=default;" parent="1" vertex="1">
          <mxGeometry x="381" y="604" width="250" height="40" as="geometry" />
        </mxCell>
        <mxCell id="CXuXiEM2NnwDOHn-P2QW-156" value="" style="endArrow=classic;html=1;rounded=0;labelBackgroundColor=default;strokeColor=default;fontFamily=Helvetica;fontSize=11;fontColor=default;shape=connector;" parent="1" edge="1">
          <mxGeometry width="50" height="50" relative="1" as="geometry">
            <mxPoint x="589.6" y="590" as="sourcePoint" />
            <mxPoint x="589.6" y="630" as="targetPoint" />
          </mxGeometry>
        </mxCell>
        <mxCell id="CXuXiEM2NnwDOHn-P2QW-157" value="" style="endArrow=classic;html=1;rounded=0;labelBackgroundColor=default;strokeColor=default;fontFamily=Helvetica;fontSize=11;fontColor=default;shape=connector;" parent="1" edge="1">
          <mxGeometry width="50" height="50" relative="1" as="geometry">
            <mxPoint x="790" y="590" as="sourcePoint" />
            <mxPoint x="790" y="630" as="targetPoint" />
          </mxGeometry>
        </mxCell>
        <mxCell id="CXuXiEM2NnwDOHn-P2QW-158" value="&lt;font style=&quot;font-size: 18px;&quot;&gt;`I_{Rbias}&quot;/&quot;2-\Deltai_{R}`&lt;/font&gt;" style="text;html=1;align=center;verticalAlign=middle;resizable=0;points=[];autosize=1;strokeColor=none;fillColor=none;fontSize=18;fontFamily=Helvetica;fontColor=default;" parent="1" vertex="1">
          <mxGeometry x="404" y="571" width="230" height="40" as="geometry" />
        </mxCell>
        <mxCell id="CXuXiEM2NnwDOHn-P2QW-159" value="&lt;font style=&quot;font-size: 20px;&quot;&gt;`I_{Rbias}&quot;/&quot;2+\Deltai_{R}`&lt;/font&gt;" style="text;html=1;align=center;verticalAlign=middle;resizable=0;points=[];autosize=1;strokeColor=none;fillColor=none;fontSize=11;fontFamily=Helvetica;fontColor=default;" parent="1" vertex="1">
          <mxGeometry x="583" y="590" width="260" height="40" as="geometry" />
        </mxCell>
        <mxCell id="CXuXiEM2NnwDOHn-P2QW-161" value="&lt;font style=&quot;font-size: 20px;&quot;&gt;`M_{B1}`&lt;/font&gt;" style="text;html=1;align=center;verticalAlign=middle;resizable=0;points=[];autosize=1;strokeColor=none;fillColor=none;fontSize=11;fontFamily=Helvetica;fontColor=default;" parent="1" vertex="1">
          <mxGeometry x="83" y="440" width="100" height="40" as="geometry" />
        </mxCell>
        <mxCell id="CXuXiEM2NnwDOHn-P2QW-162" value="&lt;font style=&quot;font-size: 20px;&quot;&gt;`M_{B2}`&lt;/font&gt;" style="text;html=1;align=center;verticalAlign=middle;resizable=0;points=[];autosize=1;strokeColor=none;fillColor=none;fontSize=11;fontFamily=Helvetica;fontColor=default;" parent="1" vertex="1">
          <mxGeometry x="140" y="440" width="100" height="40" as="geometry" />
        </mxCell>
        <mxCell id="CXuXiEM2NnwDOHn-P2QW-163" value="&lt;font style=&quot;font-size: 20px;&quot;&gt;`M_{A1}`&lt;/font&gt;" style="text;html=1;align=center;verticalAlign=middle;resizable=0;points=[];autosize=1;strokeColor=none;fillColor=none;fontSize=11;fontFamily=Helvetica;fontColor=default;" parent="1" vertex="1">
          <mxGeometry x="520" y="377" width="100" height="40" as="geometry" />
        </mxCell>
        <mxCell id="CXuXiEM2NnwDOHn-P2QW-164" value="&lt;font style=&quot;font-size: 20px;&quot;&gt;`M_{A2}`&lt;/font&gt;" style="text;html=1;align=center;verticalAlign=middle;resizable=0;points=[];autosize=1;strokeColor=none;fillColor=none;fontSize=11;fontFamily=Helvetica;fontColor=default;" parent="1" vertex="1">
          <mxGeometry x="580" y="380" width="100" height="40" as="geometry" />
        </mxCell>
        <mxCell id="CXuXiEM2NnwDOHn-P2QW-165" value="&lt;font style=&quot;font-size: 20px;&quot;&gt;`M_{A3}`&lt;/font&gt;" style="text;html=1;align=center;verticalAlign=middle;resizable=0;points=[];autosize=1;strokeColor=none;fillColor=none;fontSize=11;fontFamily=Helvetica;fontColor=default;" parent="1" vertex="1">
          <mxGeometry x="725" y="380" width="100" height="40" as="geometry" />
        </mxCell>
        <mxCell id="CXuXiEM2NnwDOHn-P2QW-166" value="&lt;font style=&quot;font-size: 20px;&quot;&gt;`M_{A4}`&lt;/font&gt;" style="text;html=1;align=center;verticalAlign=middle;resizable=0;points=[];autosize=1;strokeColor=none;fillColor=none;fontSize=11;fontFamily=Helvetica;fontColor=default;" parent="1" vertex="1">
          <mxGeometry x="780" y="380" width="100" height="40" as="geometry" />
        </mxCell>
        <mxCell id="CXuXiEM2NnwDOHn-P2QW-167" value="&lt;font style=&quot;font-size: 20px;&quot;&gt;`M_{MB1}`&lt;/font&gt;" style="text;html=1;align=center;verticalAlign=middle;resizable=0;points=[];autosize=1;strokeColor=none;fillColor=none;fontSize=11;fontFamily=Helvetica;fontColor=default;" parent="1" vertex="1">
          <mxGeometry x="219" y="550" width="120" height="40" as="geometry" />
        </mxCell>
        <mxCell id="CXuXiEM2NnwDOHn-P2QW-168" value="&lt;font style=&quot;font-size: 20px;&quot;&gt;`M_{MB2}`&lt;/font&gt;" style="text;html=1;align=center;verticalAlign=middle;resizable=0;points=[];autosize=1;strokeColor=none;fillColor=none;fontSize=11;fontFamily=Helvetica;fontColor=default;" parent="1" vertex="1">
          <mxGeometry x="320" y="565" width="120" height="40" as="geometry" />
        </mxCell>
        <mxCell id="CXuXiEM2NnwDOHn-P2QW-169" value="&lt;font style=&quot;font-size: 20px;&quot;&gt;`M_{MA2}`&lt;/font&gt;" style="text;html=1;align=center;verticalAlign=middle;resizable=0;points=[];autosize=1;strokeColor=none;fillColor=none;fontSize=11;fontFamily=Helvetica;fontColor=default;" parent="1" vertex="1">
          <mxGeometry x="780" y="545" width="120" height="40" as="geometry" />
        </mxCell>
        <mxCell id="CXuXiEM2NnwDOHn-P2QW-170" value="&lt;font style=&quot;font-size: 20px;&quot;&gt;`M_{MA1}`&lt;/font&gt;" style="text;html=1;align=center;verticalAlign=middle;resizable=0;points=[];autosize=1;strokeColor=none;fillColor=none;fontSize=11;fontFamily=Helvetica;fontColor=default;" parent="1" vertex="1">
          <mxGeometry x="570" y="540" width="120" height="40" as="geometry" />
        </mxCell>
        <mxCell id="CXuXiEM2NnwDOHn-P2QW-16" value="" style="endArrow=none;html=1;rounded=0;labelBackgroundColor=default;strokeColor=default;fontFamily=Helvetica;fontSize=11;fontColor=default;shape=connector;exitX=1;exitY=0.5;exitDx=0;exitDy=0;" parent="1" source="CXuXiEM2NnwDOHn-P2QW-171" target="CXuXiEM2NnwDOHn-P2QW-65" edge="1">
          <mxGeometry width="50" height="50" relative="1" as="geometry">
            <mxPoint x="260" y="160" as="sourcePoint" />
            <mxPoint x="520" y="160" as="targetPoint" />
          </mxGeometry>
        </mxCell>
        <mxCell id="CXuXiEM2NnwDOHn-P2QW-172" value="&lt;font style=&quot;font-size: 20px;&quot;&gt;`V_{dd}`&lt;/font&gt;" style="text;html=1;align=center;verticalAlign=middle;resizable=0;points=[];autosize=1;strokeColor=none;fillColor=none;fontSize=11;fontFamily=Helvetica;fontColor=default;" parent="1" vertex="1">
          <mxGeometry x="190" y="160" width="100" height="40" as="geometry" />
        </mxCell>
        <mxCell id="CXuXiEM2NnwDOHn-P2QW-173" value="&lt;font style=&quot;font-size: 20px;&quot;&gt;`V_{BS}`&lt;/font&gt;" style="text;html=1;align=center;verticalAlign=middle;resizable=0;points=[];autosize=1;strokeColor=none;fillColor=none;fontSize=11;fontFamily=Helvetica;fontColor=default;" parent="1" vertex="1">
          <mxGeometry x="110" y="470" width="100" height="40" as="geometry" />
        </mxCell>
        <mxCell id="CXuXiEM2NnwDOHn-P2QW-174" value="&lt;font style=&quot;font-size: 20px;&quot;&gt;`V_{AS12}`&lt;/font&gt;" style="text;html=1;align=center;verticalAlign=middle;resizable=0;points=[];autosize=1;strokeColor=none;fillColor=none;fontSize=11;fontFamily=Helvetica;fontColor=default;" parent="1" vertex="1">
          <mxGeometry x="537" y="423" width="120" height="40" as="geometry" />
        </mxCell>
        <mxCell id="CXuXiEM2NnwDOHn-P2QW-175" value="&lt;font style=&quot;font-size: 20px;&quot;&gt;`V_{AS34}`&lt;/font&gt;" style="text;html=1;align=center;verticalAlign=middle;resizable=0;points=[];autosize=1;strokeColor=none;fillColor=none;fontSize=11;fontFamily=Helvetica;fontColor=default;" parent="1" vertex="1">
          <mxGeometry x="740" y="423" width="120" height="40" as="geometry" />
        </mxCell>
        <mxCell id="CXuXiEM2NnwDOHn-P2QW-176" value="&lt;font style=&quot;font-size: 20px;&quot;&gt;`V_{ML}`&lt;/font&gt;" style="text;html=1;align=center;verticalAlign=middle;resizable=0;points=[];autosize=1;strokeColor=none;fillColor=none;fontSize=11;fontFamily=Helvetica;fontColor=default;" parent="1" vertex="1">
          <mxGeometry x="300" y="322" width="100" height="40" as="geometry" />
        </mxCell>
        <mxCell id="CXuXiEM2NnwDOHn-P2QW-177" value="&lt;font style=&quot;font-size: 20px;&quot;&gt;`V_{MR}`&lt;/font&gt;" style="text;html=1;align=center;verticalAlign=middle;resizable=0;points=[];autosize=1;strokeColor=none;fillColor=none;fontSize=11;fontFamily=Helvetica;fontColor=default;" parent="1" vertex="1">
          <mxGeometry x="334" y="357" width="110" height="40" as="geometry" />
        </mxCell>
        <mxCell id="xyEougToBjBdDJCCA7tv-1" value="" style="pointerEvents=1;verticalLabelPosition=bottom;shadow=0;dashed=0;align=center;html=1;verticalAlign=top;shape=mxgraph.electrical.signal_sources.source;aspect=fixed;points=[[0.5,0,0],[1,0.5,0],[0.5,1,0],[0,0.5,0]];elSignalType=dc1;direction=south;" parent="1" vertex="1">
          <mxGeometry x="130" y="530" width="60" height="60" as="geometry" />
        </mxCell>
        <mxCell id="xyEougToBjBdDJCCA7tv-2" style="edgeStyle=orthogonalEdgeStyle;rounded=0;orthogonalLoop=1;jettySize=auto;html=1;exitX=0;exitY=0.5;exitDx=0;exitDy=0;exitPerimeter=0;entryX=0.459;entryY=1.067;entryDx=0;entryDy=0;entryPerimeter=0;endArrow=none;endFill=0;" parent="1" source="xyEougToBjBdDJCCA7tv-1" target="CXuXiEM2NnwDOHn-P2QW-7" edge="1">
          <mxGeometry relative="1" as="geometry" />
        </mxCell>
        <mxCell id="a7zSCuqNMLtLYqyCOJrf-1" value="&lt;span style=&quot;font-size: 24px;&quot;&gt;`I_{L}`&lt;/span&gt;" style="text;html=1;align=center;verticalAlign=middle;resizable=0;points=[];autosize=1;strokeColor=none;fillColor=none;fontSize=11;fontFamily=Helvetica;fontColor=default;" parent="1" vertex="1">
          <mxGeometry x="165" y="520" width="90" height="40" as="geometry" />
        </mxCell>
      </root>
    </mxGraphModel>
  </diagram>
</mxfile>
